<mxfile host="app.diagrams.net" agent="Mozilla/5.0 (Windows NT 10.0; Win64; x64) AppleWebKit/537.36 (KHTML, like Gecko) Chrome/135.0.0.0 Safari/537.36" version="26.2.13">
  <diagram name="ページ1" id="DRWvW8gWGgiJ-jyQuQEG">
    <mxGraphModel dx="977" dy="1689" grid="1" gridSize="10" guides="1" tooltips="1" connect="1" arrows="1" fold="1" page="1" pageScale="1" pageWidth="1169" pageHeight="827" math="0" shadow="0">
      <root>
        <mxCell id="0" />
        <mxCell id="1" parent="0" />
        <mxCell id="d-ikoVOWWLCgtEzQOWzo-50" value="" style="rounded=1;whiteSpace=wrap;html=1;fillColor=#f5f5f5;fontColor=#333333;strokeColor=#666666;" vertex="1" parent="1">
          <mxGeometry x="85" y="440" width="155" height="120" as="geometry" />
        </mxCell>
        <mxCell id="d-ikoVOWWLCgtEzQOWzo-59" value="" style="rounded=1;whiteSpace=wrap;html=1;" vertex="1" parent="1">
          <mxGeometry x="27.18" y="160" width="55.63" height="80" as="geometry" />
        </mxCell>
        <mxCell id="d-ikoVOWWLCgtEzQOWzo-57" style="edgeStyle=orthogonalEdgeStyle;rounded=0;orthogonalLoop=1;jettySize=auto;html=1;exitX=0.5;exitY=1;exitDx=0;exitDy=0;entryX=0.051;entryY=0.428;entryDx=0;entryDy=0;entryPerimeter=0;" edge="1" parent="1" source="d-ikoVOWWLCgtEzQOWzo-59" target="d-ikoVOWWLCgtEzQOWzo-62">
          <mxGeometry relative="1" as="geometry">
            <mxPoint x="64.995" y="260" as="sourcePoint" />
            <mxPoint x="130" y="489.96000000000004" as="targetPoint" />
            <Array as="points">
              <mxPoint x="55" y="483" />
            </Array>
          </mxGeometry>
        </mxCell>
        <mxCell id="d-ikoVOWWLCgtEzQOWzo-94" value="&lt;b&gt;クライアント認証なし&lt;/b&gt;" style="edgeLabel;html=1;align=center;verticalAlign=middle;resizable=0;points=[];" vertex="1" connectable="0" parent="d-ikoVOWWLCgtEzQOWzo-57">
          <mxGeometry x="-0.4186" y="-5" relative="1" as="geometry">
            <mxPoint x="10" y="-32" as="offset" />
          </mxGeometry>
        </mxCell>
        <mxCell id="d-ikoVOWWLCgtEzQOWzo-4" value="" style="shape=umlActor;verticalLabelPosition=bottom;verticalAlign=top;html=1;outlineConnect=0;fontStyle=1" vertex="1" parent="1">
          <mxGeometry x="40" y="170" width="30" height="60" as="geometry" />
        </mxCell>
        <mxCell id="d-ikoVOWWLCgtEzQOWzo-6" value="majisemi_admin[133.242.18.191]" style="text;html=1;align=center;verticalAlign=middle;resizable=0;points=[];autosize=1;strokeColor=none;fillColor=none;fontStyle=1" vertex="1" parent="1">
          <mxGeometry x="320" y="80" width="200" height="30" as="geometry" />
        </mxCell>
        <mxCell id="d-ikoVOWWLCgtEzQOWzo-101" style="edgeStyle=orthogonalEdgeStyle;rounded=0;orthogonalLoop=1;jettySize=auto;html=1;fillColor=#ffe6cc;strokeColor=#d79b00;" edge="1" parent="1" source="d-ikoVOWWLCgtEzQOWzo-7" target="d-ikoVOWWLCgtEzQOWzo-98">
          <mxGeometry relative="1" as="geometry">
            <Array as="points">
              <mxPoint x="420" y="685" />
            </Array>
          </mxGeometry>
        </mxCell>
        <mxCell id="d-ikoVOWWLCgtEzQOWzo-7" value="" style="rounded=1;whiteSpace=wrap;html=1;fillColor=#f5f5f5;fontColor=#333333;strokeColor=#666666;" vertex="1" parent="1">
          <mxGeometry x="320" y="110" width="200" height="210" as="geometry" />
        </mxCell>
        <mxCell id="d-ikoVOWWLCgtEzQOWzo-12" value="" style="endArrow=classic;html=1;rounded=0;entryX=0.077;entryY=0.308;entryDx=0;entryDy=0;entryPerimeter=0;exitX=1.016;exitY=0.293;exitDx=0;exitDy=0;exitPerimeter=0;" edge="1" parent="1" source="d-ikoVOWWLCgtEzQOWzo-59">
          <mxGeometry width="50" height="50" relative="1" as="geometry">
            <mxPoint x="80" y="184" as="sourcePoint" />
            <mxPoint x="330.0150000000001" y="184.24000000000007" as="targetPoint" />
          </mxGeometry>
        </mxCell>
        <mxCell id="d-ikoVOWWLCgtEzQOWzo-13" value="/" style="text;html=1;align=center;verticalAlign=middle;resizable=0;points=[];autosize=1;strokeColor=none;fillColor=none;" vertex="1" parent="1">
          <mxGeometry x="325" y="170" width="30" height="30" as="geometry" />
        </mxCell>
        <mxCell id="d-ikoVOWWLCgtEzQOWzo-14" value="" style="endArrow=classic;html=1;rounded=0;entryX=0.077;entryY=0.308;entryDx=0;entryDy=0;entryPerimeter=0;exitX=1;exitY=0.5;exitDx=0;exitDy=0;" edge="1" parent="1" source="d-ikoVOWWLCgtEzQOWzo-59">
          <mxGeometry width="50" height="50" relative="1" as="geometry">
            <mxPoint x="90" y="199" as="sourcePoint" />
            <mxPoint x="330.0150000000001" y="199.24000000000007" as="targetPoint" />
          </mxGeometry>
        </mxCell>
        <mxCell id="d-ikoVOWWLCgtEzQOWzo-15" value="/e" style="text;html=1;align=center;verticalAlign=middle;resizable=0;points=[];autosize=1;strokeColor=none;fillColor=none;" vertex="1" parent="1">
          <mxGeometry x="325" y="185" width="30" height="30" as="geometry" />
        </mxCell>
        <mxCell id="d-ikoVOWWLCgtEzQOWzo-17" value="/admin" style="text;html=1;align=center;verticalAlign=middle;resizable=0;points=[];autosize=1;strokeColor=none;fillColor=none;" vertex="1" parent="1">
          <mxGeometry x="320" y="200" width="60" height="30" as="geometry" />
        </mxCell>
        <mxCell id="d-ikoVOWWLCgtEzQOWzo-20" value="" style="endArrow=none;dashed=1;html=1;rounded=0;entryX=0.004;entryY=0.014;entryDx=0;entryDy=0;entryPerimeter=0;" edge="1" parent="1" target="d-ikoVOWWLCgtEzQOWzo-28">
          <mxGeometry width="50" height="50" relative="1" as="geometry">
            <mxPoint x="355" y="184" as="sourcePoint" />
            <mxPoint x="560" y="184" as="targetPoint" />
          </mxGeometry>
        </mxCell>
        <mxCell id="d-ikoVOWWLCgtEzQOWzo-21" value="ReverseProxy" style="text;html=1;align=center;verticalAlign=middle;resizable=0;points=[];autosize=1;strokeColor=none;fillColor=none;fontStyle=1" vertex="1" parent="1">
          <mxGeometry x="660" y="170" width="100" height="30" as="geometry" />
        </mxCell>
        <mxCell id="d-ikoVOWWLCgtEzQOWzo-103" style="edgeStyle=orthogonalEdgeStyle;rounded=0;orthogonalLoop=1;jettySize=auto;html=1;fillColor=#ffe6cc;strokeColor=#d79b00;entryX=1;entryY=0.5;entryDx=0;entryDy=0;entryPerimeter=0;" edge="1" parent="1" source="d-ikoVOWWLCgtEzQOWzo-23" target="d-ikoVOWWLCgtEzQOWzo-98">
          <mxGeometry relative="1" as="geometry">
            <mxPoint x="830" y="710" as="targetPoint" />
            <Array as="points">
              <mxPoint x="1150" y="230" />
              <mxPoint x="1150" y="710" />
            </Array>
          </mxGeometry>
        </mxCell>
        <mxCell id="d-ikoVOWWLCgtEzQOWzo-23" value="" style="rounded=1;whiteSpace=wrap;html=1;fillColor=#f5f5f5;fontColor=#333333;strokeColor=#666666;" vertex="1" parent="1">
          <mxGeometry x="910" y="140" width="200" height="180" as="geometry" />
        </mxCell>
        <mxCell id="d-ikoVOWWLCgtEzQOWzo-22" value="" style="endArrow=none;dashed=1;html=1;rounded=0;entryX=-0.072;entryY=0.48;entryDx=0;entryDy=0;entryPerimeter=0;" edge="1" parent="1" target="d-ikoVOWWLCgtEzQOWzo-25">
          <mxGeometry width="50" height="50" relative="1" as="geometry">
            <mxPoint x="760" y="185" as="sourcePoint" />
            <mxPoint x="680" y="185" as="targetPoint" />
          </mxGeometry>
        </mxCell>
        <mxCell id="d-ikoVOWWLCgtEzQOWzo-24" value="" style="endArrow=classic;html=1;rounded=0;" edge="1" parent="1">
          <mxGeometry width="50" height="50" relative="1" as="geometry">
            <mxPoint x="910" y="184.81" as="sourcePoint" />
            <mxPoint x="920" y="184.81" as="targetPoint" />
          </mxGeometry>
        </mxCell>
        <mxCell id="d-ikoVOWWLCgtEzQOWzo-25" value="/" style="text;html=1;align=center;verticalAlign=middle;resizable=0;points=[];autosize=1;strokeColor=none;fillColor=none;" vertex="1" parent="1">
          <mxGeometry x="910" y="170" width="30" height="30" as="geometry" />
        </mxCell>
        <mxCell id="d-ikoVOWWLCgtEzQOWzo-27" value="" style="endArrow=none;dashed=1;html=1;rounded=0;" edge="1" parent="1" target="d-ikoVOWWLCgtEzQOWzo-28">
          <mxGeometry width="50" height="50" relative="1" as="geometry">
            <mxPoint x="355" y="199" as="sourcePoint" />
            <mxPoint x="560" y="199" as="targetPoint" />
          </mxGeometry>
        </mxCell>
        <mxCell id="d-ikoVOWWLCgtEzQOWzo-28" value="ReverseProxy" style="text;html=1;align=center;verticalAlign=middle;resizable=0;points=[];autosize=1;strokeColor=none;fillColor=none;fontStyle=1;spacingTop=0;spacing=2;spacingRight=0;" vertex="1" parent="1">
          <mxGeometry x="660" y="185" width="100" height="30" as="geometry" />
        </mxCell>
        <mxCell id="d-ikoVOWWLCgtEzQOWzo-29" value="" style="endArrow=none;dashed=1;html=1;rounded=0;entryX=0;entryY=0.5;entryDx=0;entryDy=0;entryPerimeter=0;exitX=0.993;exitY=0.536;exitDx=0;exitDy=0;exitPerimeter=0;" edge="1" parent="1" source="d-ikoVOWWLCgtEzQOWzo-28" target="d-ikoVOWWLCgtEzQOWzo-30">
          <mxGeometry width="50" height="50" relative="1" as="geometry">
            <mxPoint x="770" y="200" as="sourcePoint" />
            <mxPoint x="680" y="200" as="targetPoint" />
          </mxGeometry>
        </mxCell>
        <mxCell id="d-ikoVOWWLCgtEzQOWzo-30" value="/" style="text;html=1;align=center;verticalAlign=middle;resizable=0;points=[];autosize=1;strokeColor=none;fillColor=none;" vertex="1" parent="1">
          <mxGeometry x="910" y="185" width="30" height="30" as="geometry" />
        </mxCell>
        <mxCell id="d-ikoVOWWLCgtEzQOWzo-32" value="" style="endArrow=classic;html=1;rounded=0;" edge="1" parent="1">
          <mxGeometry width="50" height="50" relative="1" as="geometry">
            <mxPoint x="910" y="200" as="sourcePoint" />
            <mxPoint x="920" y="200" as="targetPoint" />
          </mxGeometry>
        </mxCell>
        <mxCell id="d-ikoVOWWLCgtEzQOWzo-34" value="majisemi_home[133.242.18.191]&lt;br&gt;majisemi_public[133.242.18.191]" style="text;html=1;align=center;verticalAlign=middle;resizable=0;points=[];autosize=1;strokeColor=none;fillColor=none;fontStyle=1" vertex="1" parent="1">
          <mxGeometry x="910" y="100" width="200" height="40" as="geometry" />
        </mxCell>
        <mxCell id="d-ikoVOWWLCgtEzQOWzo-39" value="" style="endArrow=classic;html=1;rounded=0;exitX=1.007;exitY=0.665;exitDx=0;exitDy=0;exitPerimeter=0;" edge="1" parent="1" source="d-ikoVOWWLCgtEzQOWzo-59">
          <mxGeometry relative="1" as="geometry">
            <mxPoint x="80" y="215" as="sourcePoint" />
            <mxPoint x="330" y="215" as="targetPoint" />
          </mxGeometry>
        </mxCell>
        <mxCell id="d-ikoVOWWLCgtEzQOWzo-40" value="クライアント認証あり" style="edgeLabel;resizable=0;html=1;;align=center;verticalAlign=middle;fontStyle=1" connectable="0" vertex="1" parent="d-ikoVOWWLCgtEzQOWzo-39">
          <mxGeometry relative="1" as="geometry">
            <mxPoint x="-46" y="1" as="offset" />
          </mxGeometry>
        </mxCell>
        <mxCell id="d-ikoVOWWLCgtEzQOWzo-42" value="&lt;font style=&quot;font-size: 11px;&quot;&gt;[RailsRoot]/public/system&lt;/font&gt;" style="rounded=1;whiteSpace=wrap;html=1;strokeColor=none;fontColor=#0066CC;fontStyle=1" vertex="1" parent="1">
          <mxGeometry x="325" y="230" width="187.5" height="30" as="geometry" />
        </mxCell>
        <mxCell id="d-ikoVOWWLCgtEzQOWzo-44" value="&lt;font style=&quot;font-size: 11px;&quot;&gt;[RailsRoot]/public/system&lt;/font&gt;" style="rounded=1;whiteSpace=wrap;html=1;strokeColor=none;fontColor=#0066CC;fontStyle=1" vertex="1" parent="1">
          <mxGeometry x="916.25" y="230" width="187.5" height="30" as="geometry" />
        </mxCell>
        <mxCell id="d-ikoVOWWLCgtEzQOWzo-46" value="" style="endArrow=classic;html=1;rounded=0;exitX=1;exitY=0.5;exitDx=0;exitDy=0;entryX=0;entryY=0.5;entryDx=0;entryDy=0;strokeColor=#0066CC;" edge="1" parent="1" source="d-ikoVOWWLCgtEzQOWzo-42" target="d-ikoVOWWLCgtEzQOWzo-44">
          <mxGeometry relative="1" as="geometry">
            <mxPoint x="520" y="240" as="sourcePoint" />
            <mxPoint x="620" y="240" as="targetPoint" />
          </mxGeometry>
        </mxCell>
        <mxCell id="d-ikoVOWWLCgtEzQOWzo-47" value="&lt;font style=&quot;color: rgb(0, 102, 204);&quot;&gt;NFS&lt;br&gt;主に画像共有&lt;/font&gt;" style="edgeLabel;resizable=0;html=1;;align=center;verticalAlign=middle;fontStyle=1" connectable="0" vertex="1" parent="d-ikoVOWWLCgtEzQOWzo-46">
          <mxGeometry relative="1" as="geometry" />
        </mxCell>
        <mxCell id="d-ikoVOWWLCgtEzQOWzo-55" value=" majisemi_proxy[133.242.51.225]" style="text;html=1;align=center;verticalAlign=middle;resizable=0;points=[];autosize=1;strokeColor=none;fillColor=none;fontStyle=1" vertex="1" parent="1">
          <mxGeometry x="60" y="410" width="200" height="30" as="geometry" />
        </mxCell>
        <mxCell id="d-ikoVOWWLCgtEzQOWzo-60" value="利用者" style="text;html=1;align=center;verticalAlign=middle;resizable=0;points=[];autosize=1;strokeColor=none;fillColor=none;fontStyle=1" vertex="1" parent="1">
          <mxGeometry x="25" y="130" width="60" height="30" as="geometry" />
        </mxCell>
        <mxCell id="d-ikoVOWWLCgtEzQOWzo-62" value="/admin_login" style="text;html=1;align=center;verticalAlign=middle;resizable=0;points=[];autosize=1;strokeColor=none;fillColor=none;" vertex="1" parent="1">
          <mxGeometry x="90" y="470" width="90" height="30" as="geometry" />
        </mxCell>
        <mxCell id="d-ikoVOWWLCgtEzQOWzo-64" value="" style="endArrow=none;dashed=1;html=1;rounded=0;exitX=0.975;exitY=0.486;exitDx=0;exitDy=0;exitPerimeter=0;" edge="1" parent="1" source="d-ikoVOWWLCgtEzQOWzo-62">
          <mxGeometry width="50" height="50" relative="1" as="geometry">
            <mxPoint x="240" y="500" as="sourcePoint" />
            <mxPoint x="300" y="220" as="targetPoint" />
            <Array as="points">
              <mxPoint x="300" y="485" />
            </Array>
          </mxGeometry>
        </mxCell>
        <mxCell id="d-ikoVOWWLCgtEzQOWzo-65" value="&lt;b&gt;ReverseProxy&lt;/b&gt;" style="edgeLabel;html=1;align=center;verticalAlign=middle;resizable=0;points=[];" vertex="1" connectable="0" parent="d-ikoVOWWLCgtEzQOWzo-64">
          <mxGeometry x="0.0342" y="1" relative="1" as="geometry">
            <mxPoint y="-27" as="offset" />
          </mxGeometry>
        </mxCell>
        <mxCell id="d-ikoVOWWLCgtEzQOWzo-68" value="" style="endArrow=none;dashed=1;html=1;dashPattern=1 3;strokeWidth=2;rounded=0;" edge="1" parent="1">
          <mxGeometry width="50" height="50" relative="1" as="geometry">
            <mxPoint x="400" y="320" as="sourcePoint" />
            <mxPoint x="230" y="230" as="targetPoint" />
            <Array as="points">
              <mxPoint x="400" y="400" />
              <mxPoint x="230" y="400" />
            </Array>
          </mxGeometry>
        </mxCell>
        <mxCell id="d-ikoVOWWLCgtEzQOWzo-66" value="" style="endArrow=none;dashed=1;html=1;dashPattern=1 3;strokeWidth=2;rounded=0;" edge="1" parent="1">
          <mxGeometry width="50" height="50" relative="1" as="geometry">
            <mxPoint x="230" y="170" as="sourcePoint" />
            <mxPoint x="400" y="80" as="targetPoint" />
            <Array as="points">
              <mxPoint x="230" y="40" />
              <mxPoint x="400" y="40" />
            </Array>
          </mxGeometry>
        </mxCell>
        <mxCell id="d-ikoVOWWLCgtEzQOWzo-70" value="" style="strokeColor=#dddddd;shadow=1;strokeWidth=1;rounded=1;absoluteArcSize=1;arcSize=2;" vertex="1" parent="1">
          <mxGeometry x="250" y="20" width="130" height="44" as="geometry" />
        </mxCell>
        <mxCell id="d-ikoVOWWLCgtEzQOWzo-71" value="HTTPS&#xa;Load Balancer" style="sketch=0;dashed=0;connectable=0;html=1;fillColor=#757575;strokeColor=none;shape=mxgraph.gcp2.network_load_balancer;part=1;labelPosition=right;verticalLabelPosition=middle;align=left;verticalAlign=middle;spacingLeft=5;fontSize=12;" vertex="1" parent="d-ikoVOWWLCgtEzQOWzo-70">
          <mxGeometry y="0.5" width="32" height="32" relative="1" as="geometry">
            <mxPoint x="5" y="-16" as="offset" />
          </mxGeometry>
        </mxCell>
        <mxCell id="d-ikoVOWWLCgtEzQOWzo-104" style="edgeStyle=orthogonalEdgeStyle;rounded=0;orthogonalLoop=1;jettySize=auto;html=1;fillColor=#ffe6cc;strokeColor=#d79b00;" edge="1" parent="1" source="d-ikoVOWWLCgtEzQOWzo-72" target="d-ikoVOWWLCgtEzQOWzo-98">
          <mxGeometry relative="1" as="geometry">
            <mxPoint x="830" y="680" as="targetPoint" />
            <Array as="points">
              <mxPoint x="1010" y="670" />
            </Array>
          </mxGeometry>
        </mxCell>
        <mxCell id="d-ikoVOWWLCgtEzQOWzo-72" value="" style="rounded=1;whiteSpace=wrap;html=1;fillColor=#f5f5f5;fontColor=#333333;strokeColor=#666666;" vertex="1" parent="1">
          <mxGeometry x="910" y="385" width="200" height="180" as="geometry" />
        </mxCell>
        <mxCell id="d-ikoVOWWLCgtEzQOWzo-73" value="" style="endArrow=classic;html=1;rounded=0;" edge="1" parent="1">
          <mxGeometry width="50" height="50" relative="1" as="geometry">
            <mxPoint x="910" y="429.80999999999995" as="sourcePoint" />
            <mxPoint x="920" y="429.80999999999995" as="targetPoint" />
          </mxGeometry>
        </mxCell>
        <mxCell id="d-ikoVOWWLCgtEzQOWzo-74" value="/admin" style="text;html=1;align=center;verticalAlign=middle;resizable=0;points=[];autosize=1;strokeColor=none;fillColor=none;" vertex="1" parent="1">
          <mxGeometry x="910" y="415" width="60" height="30" as="geometry" />
        </mxCell>
        <mxCell id="d-ikoVOWWLCgtEzQOWzo-77" value="new_majisemi_admin[133.242.23.174]" style="text;html=1;align=center;verticalAlign=middle;resizable=0;points=[];autosize=1;strokeColor=none;fillColor=none;fontStyle=1" vertex="1" parent="1">
          <mxGeometry x="895" y="350" width="230" height="30" as="geometry" />
        </mxCell>
        <mxCell id="d-ikoVOWWLCgtEzQOWzo-78" value="&lt;font style=&quot;font-size: 11px;&quot;&gt;[RailsRoot]/public/system&lt;/font&gt;" style="rounded=1;whiteSpace=wrap;html=1;strokeColor=none;fontColor=#0066CC;fontStyle=1" vertex="1" parent="1">
          <mxGeometry x="916.25" y="475" width="187.5" height="30" as="geometry" />
        </mxCell>
        <mxCell id="d-ikoVOWWLCgtEzQOWzo-80" value="" style="endArrow=none;dashed=1;html=1;rounded=0;entryX=-0.076;entryY=0.476;entryDx=0;entryDy=0;entryPerimeter=0;" edge="1" parent="1" target="d-ikoVOWWLCgtEzQOWzo-74">
          <mxGeometry width="50" height="50" relative="1" as="geometry">
            <mxPoint x="382" y="215" as="sourcePoint" />
            <mxPoint x="880" y="440" as="targetPoint" />
            <Array as="points">
              <mxPoint x="560" y="215" />
              <mxPoint x="560" y="430" />
            </Array>
          </mxGeometry>
        </mxCell>
        <mxCell id="d-ikoVOWWLCgtEzQOWzo-97" value="&lt;b&gt;一部&lt;br&gt;ReverseProxy&lt;/b&gt;" style="edgeLabel;html=1;align=center;verticalAlign=middle;resizable=0;points=[];" vertex="1" connectable="0" parent="d-ikoVOWWLCgtEzQOWzo-80">
          <mxGeometry x="0.2314" y="2" relative="1" as="geometry">
            <mxPoint x="142" y="2" as="offset" />
          </mxGeometry>
        </mxCell>
        <mxCell id="d-ikoVOWWLCgtEzQOWzo-81" value="ReverseProxy" style="text;html=1;align=center;verticalAlign=middle;resizable=0;points=[];autosize=1;strokeColor=none;fillColor=none;fontStyle=1;spacingTop=0;spacing=2;spacingRight=0;" vertex="1" parent="1">
          <mxGeometry x="685" y="200" width="100" height="30" as="geometry" />
        </mxCell>
        <mxCell id="d-ikoVOWWLCgtEzQOWzo-82" value="" style="endArrow=classic;html=1;rounded=0;exitX=1;exitY=0.5;exitDx=0;exitDy=0;entryX=0;entryY=0.5;entryDx=0;entryDy=0;strokeColor=#0066CC;" edge="1" parent="1" source="d-ikoVOWWLCgtEzQOWzo-42" target="d-ikoVOWWLCgtEzQOWzo-78">
          <mxGeometry relative="1" as="geometry">
            <mxPoint x="507" y="499.16999999999996" as="sourcePoint" />
            <mxPoint x="910" y="499.16999999999996" as="targetPoint" />
            <Array as="points">
              <mxPoint x="540" y="245" />
              <mxPoint x="540" y="490" />
            </Array>
          </mxGeometry>
        </mxCell>
        <mxCell id="d-ikoVOWWLCgtEzQOWzo-83" value="&lt;font style=&quot;color: rgb(0, 102, 204);&quot;&gt;NFS&lt;br&gt;主に画像共有&lt;/font&gt;" style="edgeLabel;resizable=0;html=1;;align=center;verticalAlign=middle;fontStyle=1" connectable="0" vertex="1" parent="d-ikoVOWWLCgtEzQOWzo-82">
          <mxGeometry relative="1" as="geometry">
            <mxPoint x="168" as="offset" />
          </mxGeometry>
        </mxCell>
        <mxCell id="d-ikoVOWWLCgtEzQOWzo-84" value="" style="rounded=1;whiteSpace=wrap;html=1;fillColor=#f5f5f5;fontColor=#333333;strokeColor=#666666;" vertex="1" parent="1">
          <mxGeometry x="320" y="-185" width="200" height="180" as="geometry" />
        </mxCell>
        <mxCell id="d-ikoVOWWLCgtEzQOWzo-87" value="majisemi_rpa[133.242.221.129]" style="text;html=1;align=center;verticalAlign=middle;resizable=0;points=[];autosize=1;strokeColor=none;fillColor=none;fontStyle=1" vertex="1" parent="1">
          <mxGeometry x="325" y="-220" width="190" height="30" as="geometry" />
        </mxCell>
        <mxCell id="d-ikoVOWWLCgtEzQOWzo-88" value="C:/share" style="rounded=1;whiteSpace=wrap;html=1;strokeColor=none;fontColor=#009900;fontStyle=1" vertex="1" parent="1">
          <mxGeometry x="326.25" y="-95" width="187.5" height="30" as="geometry" />
        </mxCell>
        <mxCell id="d-ikoVOWWLCgtEzQOWzo-91" style="edgeStyle=orthogonalEdgeStyle;rounded=0;orthogonalLoop=1;jettySize=auto;html=1;entryX=1;entryY=0.5;entryDx=0;entryDy=0;strokeColor=#00994D;" edge="1" parent="1" source="d-ikoVOWWLCgtEzQOWzo-89" target="d-ikoVOWWLCgtEzQOWzo-88">
          <mxGeometry relative="1" as="geometry">
            <mxPoint x="560" y="-80" as="targetPoint" />
            <Array as="points">
              <mxPoint x="560" y="145" />
              <mxPoint x="560" y="-80" />
            </Array>
          </mxGeometry>
        </mxCell>
        <mxCell id="d-ikoVOWWLCgtEzQOWzo-92" value="&lt;b&gt;&lt;font style=&quot;color: rgb(0, 153, 77);&quot;&gt;NFS&lt;br&gt;Doorkeeper&lt;br&gt;申込者情報共有&lt;/font&gt;&lt;/b&gt;" style="edgeLabel;html=1;align=center;verticalAlign=middle;resizable=0;points=[];" vertex="1" connectable="0" parent="d-ikoVOWWLCgtEzQOWzo-91">
          <mxGeometry x="0.0349" relative="1" as="geometry">
            <mxPoint as="offset" />
          </mxGeometry>
        </mxCell>
        <mxCell id="d-ikoVOWWLCgtEzQOWzo-89" value="&lt;span style=&quot;font-size: 11px;&quot;&gt;/rpa&lt;/span&gt;" style="rounded=1;whiteSpace=wrap;html=1;strokeColor=none;fontColor=#00994D;fontStyle=1" vertex="1" parent="1">
          <mxGeometry x="325" y="130" width="187.5" height="30" as="geometry" />
        </mxCell>
        <mxCell id="d-ikoVOWWLCgtEzQOWzo-95" value="&lt;font&gt;https://majisemi.com&lt;/font&gt;" style="text;html=1;align=center;verticalAlign=middle;resizable=0;points=[];autosize=1;strokeColor=none;fillColor=none;fontStyle=4;fontColor=#007FFF;fontSize=9;" vertex="1" parent="1">
          <mxGeometry x="80" y="165" width="110" height="20" as="geometry" />
        </mxCell>
        <mxCell id="d-ikoVOWWLCgtEzQOWzo-96" value="&lt;font&gt;https://proxy.majisemi.com&lt;/font&gt;" style="text;html=1;align=center;verticalAlign=middle;resizable=0;points=[];autosize=1;strokeColor=none;fillColor=none;fontStyle=4;fontColor=#007FFF;fontSize=9;" vertex="1" parent="1">
          <mxGeometry x="50" y="385" width="130" height="20" as="geometry" />
        </mxCell>
        <mxCell id="d-ikoVOWWLCgtEzQOWzo-98" value="" style="outlineConnect=0;dashed=0;verticalLabelPosition=bottom;verticalAlign=top;align=center;html=1;shape=mxgraph.aws3.mysql_db_instance_2;fillColor=#ffe6cc;strokeColor=#d79b00;" vertex="1" parent="1">
          <mxGeometry x="570" y="620" width="255" height="180" as="geometry" />
        </mxCell>
        <mxCell id="d-ikoVOWWLCgtEzQOWzo-99" value="majisemi_db[192.168.0.2]" style="text;html=1;align=center;verticalAlign=middle;resizable=0;points=[];autosize=1;strokeColor=none;fillColor=none;fontStyle=1" vertex="1" parent="1">
          <mxGeometry x="617.5" y="590" width="160" height="30" as="geometry" />
        </mxCell>
      </root>
    </mxGraphModel>
  </diagram>
</mxfile>
